<?xml version="1.0" standalone="no"?><!DOCTYPE svg PUBLIC "-//W3C//DTD SVG 1.1//EN" "http://www.w3.org/Graphics/SVG/1.1/DTD/svg11.dtd"><svg t="1652526194586" class="icon" viewBox="0 0 1024 1024" version="1.1" xmlns="http://www.w3.org/2000/svg" p-id="1338" xmlns:xlink="http://www.w3.org/1999/xlink" width="200" height="200"><defs><style type="text/css"></style></defs><path d="M920.606667 611.153333A106.153333 106.153333 0 0 1 853.333333 512v-0.593333a106.166667 106.166667 0 0 1 67.106667-99.273334c26.82-10.713333 40.186667-41.426667 29.793333-68.466666a468.233333 468.233333 0 0 0-74.46-128.24A53.226667 53.226667 0 0 0 801.6 207.333333a106.666667 106.666667 0 0 1-119.433333 8.666667 106.253333 106.253333 0 0 1-52.366667-107.253333 53.46 53.46 0 0 0-44.62-60.4 474.34 474.34 0 0 0-147.893333 0.24 52.613333 52.613333 0 0 0-34.546667 21.333333 53.566667 53.566667 0 0 0-9.62 39.173333 106.753333 106.753333 0 0 1-105.493333 121.813334 107.333333 107.333333 0 0 1-66-22.793334 53.233333 53.233333 0 0 0-74.186667 8.286667A468 468 0 0 0 73.333333 344.82c-10.32 27.053333 3.126667 57.733333 30 68.38a106.706667 106.706667 0 0 1 0.166667 198.306667c-26.826667 10.666667-40.22 41.393333-29.853333 68.44A468.086667 468.086667 0 0 0 148 808.253333a52.6 52.6 0 0 0 35.673333 19.22 53.566667 53.566667 0 0 0 38.666667-11.213333 106.706667 106.706667 0 0 1 171.513333 98.893333 53.466667 53.466667 0 0 0 44.58 60.44 474.366667 474.366667 0 0 0 147.566667-0.066666 53.48 53.48 0 0 0 44.533333-60.486667 106.253333 106.253333 0 0 1 52.173334-107.373333 106.226667 106.226667 0 0 1 119.24 8.333333 53.52 53.52 0 0 0 38.706666 11.18 52.606667 52.606667 0 0 0 35.653334-19.253333 468 468 0 0 0 74.22-128.346667c10.34-27.066667-3.08-57.753333-29.92-68.426667zM640 512c0 70.58-57.42 128-128 128s-128-57.42-128-128 57.42-128 128-128 128 57.42 128 128z" fill="#515151" p-id="1339"></path></svg>