<?xml version="1.0" standalone="no"?><!DOCTYPE svg PUBLIC "-//W3C//DTD SVG 1.1//EN" "http://www.w3.org/Graphics/SVG/1.1/DTD/svg11.dtd"><svg t="1652526365617" class="icon" viewBox="0 0 1024 1024" version="1.1" xmlns="http://www.w3.org/2000/svg" p-id="5994" xmlns:xlink="http://www.w3.org/1999/xlink" width="200" height="200"><defs><style type="text/css"></style></defs><path d="M554.666667 512a53.44 53.44 0 0 1-17.4 39.413333L174.6 882a52.833333 52.833333 0 0 1-35.713333 14 53.84 53.84 0 0 1-21.76-4.666667 52.666667 52.666667 0 0 1-31.793334-48.74V181.406667A53.333333 53.333333 0 0 1 174.593333 142l362.666667 330.6A53.44 53.44 0 0 1 554.666667 512z m451.933333-39.413333L643.926667 142A53.333333 53.333333 0 0 0 554.666667 181.406667v661.186666a52.666667 52.666667 0 0 0 31.793333 48.793334 53.84 53.84 0 0 0 21.76 4.666666 52.833333 52.833333 0 0 0 35.713333-14l362.666667-330.6a53.333333 53.333333 0 0 0 0-78.826666zM42.666667 874.666667V149.333333a21.333333 21.333333 0 0 0-42.666667 0v725.333334a21.333333 21.333333 0 0 0 42.666667 0z" fill="#515151" p-id="5995"></path></svg>