<?xml version="1.0" standalone="no"?><!DOCTYPE svg PUBLIC "-//W3C//DTD SVG 1.1//EN" "http://www.w3.org/Graphics/SVG/1.1/DTD/svg11.dtd"><svg t="1652527506154" class="icon" viewBox="0 0 1024 1024" version="1.1" xmlns="http://www.w3.org/2000/svg" p-id="17354" xmlns:xlink="http://www.w3.org/1999/xlink" width="200" height="200"><defs><style type="text/css"></style></defs><path d="M182.857143 146.285714q0 41.142857-36.571429 62.857143l0 723.428571q0 7.428571-5.428571 12.857143t-12.857143 5.428571l-36.571429 0q-7.428571 0-12.857143-5.428571t-5.428571-12.857143l0-723.428571q-36.571429-21.714286-36.571429-62.857143 0-30.285714 21.428571-51.714286t51.714286-21.428571 51.714286 21.428571 21.428571 51.714286zm841.142857 36.571429l0 436q0 14.285714-7.142857 22t-22.571429 15.714286q-122.857143 66.285714-210.857143 66.285714-34.857143 0-70.571429-12.571429t-62-27.428571-66-27.428571-81.428571-12.571429q-109.714286 0-265.142857 83.428571-9.714286 5.142857-18.857143 5.142857-14.857143 0-25.714286-10.857143t-10.857143-25.714286l0-424q0-18.285714 17.714286-31.428571 12-8 45.142857-24.571429 134.857143-68.571429 240.571429-68.571429 61.142857 0 114.285714 16.571429t125.142857 50.285714q21.714286 10.857143 50.285714 10.857143 30.857143 0 67.142857-12t62.857143-26.857143 50.285714-26.857143 31.142857-12q14.857143 0 25.714286 10.857143t10.857143 25.714286z" p-id="17355" fill="#515151"></path></svg>